<!DOCTYPE svg PUBLIC "-//W3C//DTD SVG 1.1//EN" "http://www.w3.org/Graphics/SVG/1.1/DTD/svg11.dtd">
<!-- Uploaded to: SVG Repo, www.svgrepo.com, Transformed by: SVG Repo Mixer Tools -->
<svg width="800px" height="800px" viewBox="0 0 24 24" fill="none" xmlns="http://www.w3.org/2000/svg" stroke="#ffffff">
<g id="SVGRepo_bgCarrier" stroke-width="0"/>
<g id="SVGRepo_tracerCarrier" stroke-linecap="round" stroke-linejoin="round"/>
<g id="SVGRepo_iconCarrier"> <path d="M18 8V15.3C18 16.4201 18 16.9802 17.782 17.408C17.5903 17.7843 17.2843 18.0903 16.908 18.282C16.4802 18.5 15.9201 18.5 14.8 18.5H12M18 8C19.3807 8 20.5 6.88071 20.5 5.5C20.5 4.11929 19.3807 3 18 3C16.6193 3 15.5 4.11929 15.5 5.5C15.5 6.88071 16.6193 8 18 8ZM12 18.5L14 16M12 18.5L14 21M6 16V8.7C6 7.5799 6 7.01984 6.21799 6.59202C6.40973 6.21569 6.71569 5.90973 7.09202 5.71799C7.51984 5.5 8.0799 5.5 9.2 5.5H12M6 16C4.61929 16 3.5 17.1193 3.5 18.5C3.5 19.8807 4.61929 21 6 21C7.38071 21 8.5 19.8807 8.5 18.5C8.5 17.1193 7.38071 16 6 16ZM12 5.5L10 8M12 5.5L10 3" stroke="#ffffff" stroke-width="2" stroke-linecap="round" stroke-linejoin="round"/> </g>
</svg>