<!DOCTYPE svg PUBLIC "-//W3C//DTD SVG 1.1//EN" "http://www.w3.org/Graphics/SVG/1.1/DTD/svg11.dtd">
<!-- Uploaded to: SVG Repo, www.svgrepo.com, Transformed by: SVG Repo Mixer Tools -->
<svg width="100px" height="100px" viewBox="0 -0.5 25 25" fill="none" xmlns="http://www.w3.org/2000/svg">
<g id="SVGRepo_bgCarrier" stroke-width="0"/>
<g id="SVGRepo_tracerCarrier" stroke-linecap="round" stroke-linejoin="round"/>
<g id="SVGRepo_iconCarrier"> <path fill-rule="evenodd" clip-rule="evenodd" d="M9.318 16.455C9.31745 17.5092 8.46251 18.3634 7.40833 18.363C6.35415 18.3626 5.49982 17.5078 5.5 16.4536C5.50018 15.3995 6.35482 14.545 7.409 14.545C7.91547 14.545 8.40118 14.7462 8.75922 15.1045C9.11726 15.4627 9.31827 15.9485 9.318 16.455V16.455Z" stroke="#000000" stroke-width="1.5" stroke-linecap="round" stroke-linejoin="round"/> <path fill-rule="evenodd" clip-rule="evenodd" d="M15.682 7.54499C15.682 6.49067 16.5367 5.63599 17.591 5.63599C18.6453 5.63599 19.5 6.49067 19.5 7.54499C19.5 8.5993 18.6453 9.45399 17.591 9.45399C16.5367 9.45399 15.682 8.5993 15.682 7.54499H15.682Z" stroke="#000000" stroke-width="1.5" stroke-linecap="round" stroke-linejoin="round"/> <path d="M11.864 7.659C12.2782 7.659 12.614 7.32321 12.614 6.909C12.614 6.49479 12.2782 6.159 11.864 6.159V7.659ZM10.15 6.909V6.15899L10.1457 6.15901L10.15 6.909ZM7.40901 9.681H8.15902L8.159 9.67691L7.40901 9.681ZM6.65901 14.545C6.65901 14.9592 6.99479 15.295 7.40901 15.295C7.82322 15.295 8.15901 14.9592 8.15901 14.545H6.65901ZM11.3337 7.43933C11.6266 7.73222 12.1014 7.73222 12.3943 7.43933C12.6872 7.14644 12.6872 6.67156 12.3943 6.37867L11.3337 7.43933ZM10.4853 4.46967C10.1924 4.17678 9.71757 4.17678 9.42468 4.46967C9.13178 4.76256 9.13178 5.23744 9.42468 5.53033L10.4853 4.46967ZM12.3943 7.43933C12.6872 7.14644 12.6872 6.67156 12.3943 6.37867C12.1014 6.08578 11.6266 6.08578 11.3337 6.37867L12.3943 7.43933ZM9.42468 8.28767C9.13178 8.58056 9.13178 9.05544 9.42468 9.34833C9.71757 9.64122 10.1924 9.64122 10.4853 9.34833L9.42468 8.28767ZM13.137 16.341C12.7228 16.341 12.387 16.6768 12.387 17.091C12.387 17.5052 12.7228 17.841 13.137 17.841V16.341ZM14.85 17.091V17.841L14.8543 17.841L14.85 17.091ZM17.591 14.319H16.841L16.841 14.3231L17.591 14.319ZM18.341 9.455C18.341 9.04079 18.0052 8.705 17.591 8.705C17.1768 8.705 16.841 9.04079 16.841 9.455H18.341ZM13.6663 16.5607C13.3734 16.2678 12.8986 16.2678 12.6057 16.5607C12.3128 16.8536 12.3128 17.3284 12.6057 17.6213L13.6663 16.5607ZM14.5147 19.5303C14.8076 19.8232 15.2824 19.8232 15.5753 19.5303C15.8682 19.2374 15.8682 18.7626 15.5753 18.4697L14.5147 19.5303ZM12.6057 16.5607C12.3128 16.8536 12.3128 17.3284 12.6057 17.6213C12.8986 17.9142 13.3734 17.9142 13.6663 17.6213L12.6057 16.5607ZM15.5753 15.7123C15.8682 15.4194 15.8682 14.9446 15.5753 14.6517C15.2824 14.3588 14.8076 14.3588 14.5147 14.6517L15.5753 15.7123ZM11.864 6.159H10.15V7.659H11.864V6.159ZM10.1457 6.15901C8.20929 6.17022 6.64845 7.74871 6.65902 9.68509L8.159 9.67691C8.15295 8.56875 9.04619 7.6654 10.1543 7.65899L10.1457 6.15901ZM6.65901 9.681V14.545H8.15901V9.681H6.65901ZM12.3943 6.37867L10.4853 4.46967L9.42468 5.53033L11.3337 7.43933L12.3943 6.37867ZM11.3337 6.37867L9.42468 8.28767L10.4853 9.34833L12.3943 7.43933L11.3337 6.37867ZM13.137 17.841H14.85V16.341H13.137V17.841ZM14.8543 17.841C16.7907 17.8298 18.3516 16.2513 18.341 14.3149L16.841 14.3231C16.8471 15.4313 15.9538 16.3346 14.8457 16.341L14.8543 17.841ZM18.341 14.319V9.455H16.841V14.319H18.341ZM12.6057 17.6213L14.5147 19.5303L15.5753 18.4697L13.6663 16.5607L12.6057 17.6213ZM13.6663 17.6213L15.5753 15.7123L14.5147 14.6517L12.6057 16.5607L13.6663 17.6213Z" fill="#000000"/> </g>
</svg>