<?xml version="1.0" encoding="utf-8"?><!-- Uploaded to: SVG Repo, www.svgrepo.com, Generator: SVG Repo Mixer Tools -->
<svg width="800px" height="800px" viewBox="0 0 24 24" fill="none" xmlns="http://www.w3.org/2000/svg">
<path d="M10 8.99998C10.5523 8.99998 11 9.44769 11 9.99998C11 10.5523 10.5523 11 10 11C9.44775 11 9.00004 10.5523 9.00004 9.99998C9.00004 9.44769 9.44775 8.99998 10 8.99998Z" fill="#000000"/>
<path d="M13 14C13 14.5523 13.4478 15 14 15C14.5523 15 15 14.5523 15 14C15 13.4477 14.5523 13 14 13C13.4478 13 13 13.4477 13 14Z" fill="#000000"/>
<path d="M10.7071 14.7071L14.7071 10.7071C15.0977 10.3166 15.0977 9.6834 14.7071 9.29287C14.3166 8.90235 13.6835 8.90235 13.2929 9.29287L9.29293 13.2929C8.90241 13.6834 8.90241 14.3166 9.29293 14.7071C9.68346 15.0976 10.3166 15.0976 10.7071 14.7071Z" fill="#000000"/>
<path fill-rule="evenodd" clip-rule="evenodd" d="M16.3117 4.07145L15.1708 4.34503L14.5575 3.34485C13.3869 1.43575 10.6131 1.43575 9.44254 3.34485L8.82926 4.34503L7.68836 4.07145C5.51069 3.54925 3.54931 5.51063 4.07151 7.6883L4.34509 8.8292L3.34491 9.44248C1.43581 10.6131 1.43581 13.3869 3.34491 14.5575L4.34509 15.1708L4.07151 16.3117C3.54931 18.4893 5.51069 20.4507 7.68836 19.9285L8.82926 19.6549L9.44254 20.6551C10.6131 22.5642 13.3869 22.5642 14.5575 20.6551L15.1708 19.6549L16.3117 19.9285C18.4894 20.4507 20.4508 18.4893 19.9286 16.3117L19.655 15.1708L20.6552 14.5575C22.5643 13.3869 22.5643 10.6131 20.6552 9.44248L19.655 8.8292L19.9286 7.6883C20.4508 5.51063 18.4894 3.54925 16.3117 4.07145ZM11.1475 4.3903C11.5377 3.75393 12.4623 3.75393 12.8525 4.3903L13.8454 6.00951C14.0717 6.37867 14.51 6.56019 14.9311 6.45922L16.7781 6.01631C17.504 5.84225 18.1578 6.49604 17.9837 7.22193L17.5408 9.06894C17.4398 9.49003 17.6213 9.92827 17.9905 10.1546L19.6097 11.1475C20.2461 11.5377 20.2461 12.4623 19.6097 12.8525L17.9905 13.8453C17.6213 14.0717 17.4398 14.5099 17.5408 14.931L17.9837 16.778C18.1578 17.5039 17.504 18.1577 16.7781 17.9836L14.9311 17.5407C14.51 17.4398 14.0717 17.6213 13.8454 17.9904L12.8525 19.6097C12.4623 20.246 11.5377 20.246 11.1475 19.6097L10.1547 17.9904C9.92833 17.6213 9.49009 17.4398 9.069 17.5407L7.22199 17.9836C6.4961 18.1577 5.84231 17.5039 6.01637 16.778L6.45928 14.931C6.56026 14.5099 6.37873 14.0717 6.00957 13.8453L4.39036 12.8525C3.75399 12.4623 3.75399 11.5377 4.39036 11.1475L6.00957 10.1546C6.37873 9.92827 6.56026 9.49003 6.45928 9.06894L6.01637 7.22193C5.84231 6.49604 6.4961 5.84225 7.22199 6.01631L9.069 6.45922C9.49009 6.56019 9.92833 6.37867 10.1547 6.00951L11.1475 4.3903Z" fill="#000000"/>
</svg>