<?xml version="1.0" encoding="utf-8"?>
<!-- Uploaded to: SVG Repo, www.svgrepo.com, Generator: SVG Repo Mixer Tools -->
<svg fill="#000000" width="800px" height="800px" viewBox="-5.5 0 32 32" version="1.1" xmlns="http://www.w3.org/2000/svg">
<title>menu</title>
<path d="M1.375 9.156h18.063c0.781 0 1.375-0.594 1.375-1.375 0-0.75-0.594-1.344-1.375-1.344h-18.063c-0.781 0-1.375 0.594-1.375 1.344 0 0.781 0.594 1.375 1.375 1.375zM1.375 14.625h18.063c0.781 0 1.375-0.594 1.375-1.375 0-0.75-0.594-1.344-1.375-1.344h-18.063c-0.781 0-1.375 0.594-1.375 1.344 0 0.781 0.594 1.375 1.375 1.375zM1.375 20.094h18.063c0.781 0 1.375-0.594 1.375-1.344 0-0.781-0.594-1.375-1.375-1.375h-18.063c-0.781 0-1.375 0.594-1.375 1.375 0 0.75 0.594 1.344 1.375 1.344zM1.375 25.563h18.063c0.781 0 1.375-0.594 1.375-1.344 0-0.781-0.594-1.375-1.375-1.375h-18.063c-0.781 0-1.375 0.594-1.375 1.375 0 0.75 0.594 1.344 1.375 1.344z"></path>
</svg>